# xmcd
#
# Track frame offsets:
#	150
#	11651
#	23208
#	38511
#	51086
#	60714
#	74229
#	87506
#	102643
#	115249
#	129637
#	143510
#	156747
#	168911
#	180649
#	194735
#
# Disc length: 2788 seconds
#
# Revision: 1
# Processed by: cddbd v1.5.1PL0 Copyright (c) Steve Scherf et al.
# Submitted via: audiograbber 1.83.01
#
DISCID=ed0ae210
DTITLE=Muddy Waters - Rolling Stone
DYEAR=2004
DGENRE=Blues
TTITLE0=Little Anna Mea
TTITLE1=Gypsy Woman
TTITLE2=Country Blues
TTITLE3=Train Fare Home Blues
TTITLE4=Why Don't You Live So God Can Use You
TTITLE5=Rollin' And Tumblin'
TTITLE6=She Moves Me
TTITLE7=32-20 Blues
TTITLE8=Little Geneva
TTITLE9=I Be Bound To Write To You
TTITLE10=Take A Walk With Me
TTITLE11=Walkin'blues
TTITLE12=I Can't Be Satisfied
TTITLE13=You Gonna Miss Me
TTITLE14=Rolling Stone
TTITLE15=Streamline Woman
EXTD=Original Recordings-Digital New Remastered
EXTT0=
EXTT1=
EXTT2=
EXTT3=
EXTT4=
EXTT5=
EXTT6=
EXTT7=
EXTT8=
EXTT9=
EXTT10=
EXTT11=
EXTT12=
EXTT13=
EXTT14=
EXTT15=
PLAYORDER=
